# xmcd CD database file
#
# Track frame offsets:
#	150
#	17948
#	36363
#	59678
#	77810
#	96086
#	119079
#	141811
#	163311
#	189525
#	206775
#	238055
#	257535
#	278844
#	299267
#	309525
#
# Disc length: 4527 seconds
#
# Revision: 1
# Processed by: cddbd v1.5.1PL0 Copyright (c) Steve Scherf et al.
# Submitted via: CDex 1.51
#
DISCID=fa11ad10
DTITLE=CityJazzNight Braunschweig - Festival Soundtrack 2005
DYEAR=2005
DGENRE=Jazz
TTITLE0=CityJazzNight Theme - CityJazzNight Allstarts
TTITLE1=Words - Torun Eriksen
TTITLE2=Simply Smooth - Dublex Inc.
TTITLE3=All I Need - [Re:Jazz]
TTITLE4=Kohldampf - Jazzkantine
TTITLE5=The Real Moustache - Erik Sumo feat. Erzsi Kiss
TTITLE6=Mastertrack - Bonefunk
TTITLE7=Feeling Godd - Turntroop
TTITLE8=Funky Nassau - The Juju Orchestra
TTITLE9=Walking Boy - Doris' Guesthouse
TTITLE10=Baiao De Emalar - Lateralmusic
TTITLE11=So Lost Like Peace - Ulita Knaus
TTITLE12=Nachoftenteam - Cyminology
TTITLE13=Love Come Back To Me - Swing Orchestra Truxa
TTITLE14=Boogie For You - Henning Pertiet
TTITLE15=Was man Sehr Heftig Liebt - Text in Stereo
EXTD=YEAR: 2005
EXTT0=
EXTT1=
EXTT2=
EXTT3=
EXTT4=
EXTT5=
EXTT6=
EXTT7=
EXTT8=
EXTT9=
EXTT10=
EXTT11=
EXTT12=
EXTT13=
EXTT14=
EXTT15=
PLAYORDER=
